<svg xmlns="http://www.w3.org/2000/svg" version="1.1" xmlns:xlink="http://www.w3.org/1999/xlink" xmlns:svgjs="http://svgjs.dev/svgjs" width="100%" height="100%" viewBox="0 0 1000 600"><rect width="1000" height="600" x="0" y="0" fill="#212529"/><g><circle r="166.66666666666666" cx="352.8279825846354" cy="375.05026143810085" fill="#ffd700" transform="matrix(0.6714603747719003,0,0,0.6714603747719005,0,48.16860831959754)"/><path d="M297.85053065752754 450.05018380889936L297.85053065752754 450.05018380889936Q293.8489616781827 450.05018380889936 291.0831713542238 447.2843934849405Q288.31738103026487 444.54802646230024 288.31738103026487 440.5170341816367L288.31738103026487 440.5170341816367L288.31738103026487 314.05568511381307Q288.31738103026487 308.3181413566642 292.3483733109284 304.1988791720446Q296.379365591592 300.05019368610624 302.08748604742203 300.05019368610624L302.08748604742203 300.05019368610624L304.85327637138096 300.05019368610624Q308.4429191322638 300.05019368610624 311.4146725654537 301.7567451625915Q314.38642599864363 303.4632966390768 316.50490369359085 306.405626770948L316.50490369359085 306.405626770948L398.0662949490602 424.2165252510703L398.0662949490602 309.8187297239186Q398.0662949490602 305.787737443255 400.8320852730191 302.93367721534Q403.5684522956593 300.05019368610624 407.59944457632287 300.05019368610624L407.59944457632287 300.05019368610624Q411.63043685698636 300.05019368610624 414.4844970849014 302.93367721534Q417.3385573128165 305.787737443255 417.3385573128165 309.8187297239186L417.3385573128165 309.8187297239186L417.3385573128165 436.2800787917422Q417.3385573128165 441.9881992475723 413.2192951281968 446.0191915282358Q409.07060964225843 450.05018380889936 403.3624891864283 450.05018380889936L403.3624891864283 450.05018380889936L400.8320852730191 450.05018380889936Q397.41898232004854 450.05018380889936 394.47665218817735 448.46132553768894Q391.50489875498744 446.8724672664785 389.59238416927116 444.34206335306925L389.59238416927116 444.34206335306925L307.6190666953399 325.91327554525395L307.6190666953399 440.5170341816367Q307.6190666953399 444.54802646230024 304.73558316610615 447.2843934849405Q301.8815229381911 450.05018380889936 297.85053065752754 450.05018380889936Z " fill="#212529" transform="matrix(0.6714603747719003,0,0,0.6714603747719005,0,48.16860831959754)"/><path d="M612.2942729762841 448.99837074515375L612.2942729762841 448.99837074515375Q608.3207633495612 448.99837074515375 605.5743669899146 446.251974385507Q602.8279706302678 443.53479500840973 602.8279706302678 439.53206839913736L602.8279706302678 439.53206839913736L602.8279706302678 313.95747740167366Q602.8279706302678 308.26016580453415 606.8306972395401 304.1697882476135Q610.8334238488125 300.05019370814347 616.5015184634025 300.05019370814347L616.5015184634025 300.05019370814347L619.2479148230492 300.05019370814347Q622.81238669408 300.05019370814347 625.7633019315729 301.7447786960106Q628.7142171690655 303.4393636838777 630.8178399126248 306.361061938821L630.8178399126248 306.361061938821L711.8073155396535 423.3458600667514L711.8073155396535 309.7502319145553Q711.8073155396535 305.7475053052829 714.5537118993002 302.9134579979879Q717.2708912763975 300.05019370814347 721.2736178856699 300.05019370814347L721.2736178856699 300.05019370814347Q725.2763444949421 300.05019370814347 728.1103918022372 302.9134579979879Q730.9444391095321 305.7475053052829 730.9444391095321 309.7502319145553L730.9444391095321 309.7502319145553L730.9444391095321 435.324822912019Q730.9444391095321 440.99291752660906 726.8540615526115 444.9956441358814Q722.7344670131415 448.99837074515375 717.0663723985515 448.99837074515375L717.0663723985515 448.99837074515375L714.5537118993002 448.99837074515375Q711.1645419235659 448.99837074515375 708.2428436686226 447.4206536874844Q705.2919284311299 445.842936629815 703.3928245654167 443.33027613056373L703.3928245654167 443.33027613056373L621.9943111826959 325.73192136909523L621.9943111826959 439.53206839913736Q621.9943111826959 443.53479500840973 619.1310468928515 446.251974385507Q616.2969995855565 448.99837074515375 612.2942729762841 448.99837074515375ZM815.2938677297458 450.05018211693334L815.2938677297458 450.05018211693334Q799.1076593973597 450.05018211693334 786.8949606916967 443.0088893225199Q774.7114789685832 435.9675965281065 768.0792239298618 423.4335110143997Q761.4469688911404 410.9286424832423 761.4469688911404 394.3041794126149L761.4469688911404 394.3041794126149Q761.4469688911404 377.6797163419874 768.0792239298618 365.17484781083Q774.7114789685832 352.64076229712316 786.8949606916967 345.5994695027098Q799.1076593973597 338.5581767082964 815.2938677297458 338.5581767082964L815.2938677297458 338.5581767082964Q831.5092930446812 338.5581767082964 843.6051238201464 345.5994695027098Q855.7009545956118 352.64076229712316 862.4208605819815 365.17484781083Q869.1699835509005 377.6797163419874 869.1699835509005 394.3041794126149L869.1699835509005 394.3041794126149Q869.1699835509005 410.9286424832423 862.4208605819815 423.4335110143997Q855.7009545956118 435.9675965281065 843.6051238201464 443.0088893225199Q831.5092930446812 450.05018211693334 815.2938677297458 450.05018211693334ZM815.2938677297458 432.57842655237226L815.2938677297458 432.57842655237226Q823.2993209482904 432.57842655237226 831.3047741668352 428.80943580349543Q839.2810104028304 425.0112280720691 844.6569351919261 416.50908615018403Q850.0036429984723 407.9777272457496 850.0036429984723 394.0996605347688L850.0036429984723 394.0996605347688Q850.0036429984723 380.22159382378806 844.6569351919261 371.8071028495513Q839.2810104028304 363.39261187531457 831.3047741668352 359.71127207408597Q823.2993209482904 356.0299322728574 815.2938677297458 356.0299322728574L815.2938677297458 356.0299322728574Q807.3176314937505 356.0299322728574 799.2245273275576 359.71127207408597Q791.1022061788151 363.39261187531457 785.8431493199172 371.8071028495513Q780.5840924610192 380.22159382378806 780.5840924610192 394.0996605347688L780.5840924610192 394.0996605347688Q780.5840924610192 407.9777272457496 785.8431493199172 416.50908615018403Q791.1022061788151 425.0112280720691 799.2245273275576 428.80943580349543Q807.3176314937505 432.57842655237226 815.2938677297458 432.57842655237226ZM905.3406079470988 448.99837074515375L905.3406079470988 448.99837074515375Q901.3378813378265 448.99837074515375 898.6207019607292 446.251974385507Q895.8743056010824 443.53479500840973 895.8743056010824 439.53206839913736L895.8743056010824 439.53206839913736L895.8743056010824 349.2808093039383Q895.8743056010824 345.278082694666 898.6207019607292 342.444035387371Q901.3378813378265 339.609988080076 905.3406079470988 339.609988080076L905.3406079470988 339.609988080076Q909.3433345563711 339.609988080076 912.1773818636661 342.444035387371Q915.0114291709612 345.278082694666 915.0114291709612 349.2808093039383L915.0114291709612 349.2808093039383L915.0114291709612 357.8998191560211Q917.9623444084539 353.69257366890275 922.4909767036161 349.2808093039383Q927.0196089987783 344.86904493897396 933.9440338629938 341.7136108236352Q940.8976757097589 338.5581767082964 950.7730158114673 338.5581767082964L950.7730158114673 338.5581767082964Q963.3947522728224 338.5581767082964 971.4878564390154 345.278082694666Q979.6101775877579 352.02720566358505 982.9701305809427 360.2371777599758L982.9701305809427 360.2371777599758Q985.4827910801939 356.2344511507034 990.1282913055538 351.1799131696515Q994.7445745483643 346.12537518859955 1002.4286409588652 342.35638443972266Q1010.1127073693661 338.5581767082964 1021.6826324589417 338.5581767082964L1021.6826324589417 338.5581767082964Q1034.0706330599014 338.5581767082964 1041.8715674006 344.7521770087762Q1049.6432847587491 350.97539429180546 1053.2369736123294 360.2371777599758Q1056.8014454833603 369.46974424559664 1056.8014454833603 378.936046591613L1056.8014454833603 378.936046591613L1056.8014454833603 439.53206839913736Q1056.8014454833603 443.53479500840973 1053.9673981760652 446.251974385507Q1051.1333508687703 448.99837074515375 1047.130624259498 448.99837074515375L1047.130624259498 448.99837074515375Q1043.1278976502256 448.99837074515375 1040.3815012905789 446.251974385507Q1037.6643219134817 443.53479500840973 1037.6643219134817 439.53206839913736L1037.6643219134817 439.53206839913736L1037.6643219134817 382.73425432303935Q1037.6643219134817 369.46974424559664 1032.9311707404736 362.86670618942475Q1028.1980195674653 356.2344511507034 1016.1898397396483 356.2344511507034L1016.1898397396483 356.2344511507034Q1008.213603503653 356.2344511507034 1002.5162919065135 359.2730173358445Q996.8481972919235 362.340800503535 992.8454706826511 366.9570837463454Q988.8427440733788 371.57336698915583 985.9210458184355 376.42338609236174L985.9210458184355 376.42338609236174L985.9210458184355 439.53206839913736Q985.9210458184355 443.53479500840973 983.057781528591 446.251974385507Q980.223734221296 448.99837074515375 976.2210076120236 448.99837074515375L976.2210076120236 448.99837074515375Q972.2474979853007 448.99837074515375 969.501101625654 446.251974385507Q966.7547052660072 443.53479500840973 966.7547052660072 439.53206839913736L966.7547052660072 439.53206839913736L966.7547052660072 382.73425432303935Q966.7547052660072 369.46974424559664 962.021554092999 362.86670618942475Q957.2884029199911 356.2344511507034 945.3094400747234 356.2344511507034L945.3094400747234 356.2344511507034Q937.3039868561787 356.2344511507034 931.6358922415886 359.2730173358445Q925.9677976269986 362.340800503535 921.9650710177262 366.9570837463454Q917.9623444084539 371.57336698915583 915.0114291709612 376.42338609236174L915.0114291709612 376.42338609236174L915.0114291709612 439.53206839913736Q915.0114291709612 443.53479500840973 912.1773818636661 446.251974385507Q909.3433345563711 448.99837074515375 905.3406079470988 448.99837074515375ZM1116.3456559191052 450.05018211693334L1116.3456559191052 450.05018211693334Q1107.2883913287808 450.05018211693334 1099.3998060404338 446.251974385507Q1091.511220752087 442.48298363663014 1086.7780695790789 435.44169084221676Q1082.0449184060706 428.3711810652539 1082.0449184060706 418.4958409635455L1082.0449184060706 418.4958409635455Q1082.0449184060706 403.56596288078515 1093.9362303036899 393.9827926045711Q1105.8275422013091 384.4288393109064 1130.428241507932 384.4288393109064L1130.428241507932 384.4288393109064L1155.8762333084883 384.4288393109064L1155.8762333084883 382.73425432303935Q1155.8762333084883 368.65166873421254 1148.9518084442725 362.6329703290293Q1141.9981665975074 356.6434889063955 1127.6818451482852 356.6434889063955L1127.6818451482852 356.6434889063955Q1118.8583164183565 356.6434889063955 1112.2260613796352 358.2212059640649Q1105.5938063409137 359.79892302173425 1099.7211928484776 361.69802688744744L1099.7211928484776 361.69802688744744Q1098.0266078606105 362.1070646431395 1096.974796488831 362.1070646431395L1096.974796488831 362.1070646431395Q1093.8193623734921 362.1070646431395 1091.511220752087 359.79892302173425Q1089.2030791306815 357.49078140032907 1089.2030791306815 354.13082840714424L1089.2030791306815 354.13082840714424Q1089.2030791306815 348.4335168100048 1094.6666548674257 346.12537518859955L1094.6666548674257 346.12537518859955Q1102.029334469883 342.96994107326077 1110.9697311300094 340.7786673820533Q1119.910127790136 338.5581767082964 1131.0710151240196 338.5581767082964L1131.0710151240196 338.5581767082964Q1146.409930962472 338.5581767082964 1156.0807521863344 344.6645260611279Q1165.780790392746 350.77087541395946 1170.3970736355566 360.2371777599758Q1175.013356878367 369.7034801059921 1175.013356878367 379.9878579633926L1175.013356878367 379.9878579633926L1175.013356878367 439.53206839913736Q1175.013356878367 443.53479500840973 1172.1793095710718 446.251974385507Q1169.345262263777 448.99837074515375 1165.3425356545044 448.99837074515375L1165.3425356545044 448.99837074515375Q1161.3398090452322 448.99837074515375 1158.622629668135 446.251974385507Q1155.8762333084883 443.53479500840973 1155.8762333084883 439.53206839913736L1155.8762333084883 439.53206839913736L1155.8762333084883 434.0684926623934Q1150.208138693898 439.94110615482947 1140.7418363478819 444.9956441358814Q1131.2755340018655 450.05018211693334 1116.3456559191052 450.05018211693334ZM1123.4745996611668 433.2212001684598L1123.4745996611668 433.2212001684598Q1133.3791567454246 433.2212001684598 1141.9981665975074 428.3711810652539Q1150.6171764495903 423.55037894459747 1155.8762333084883 417.4440295917659L1155.8762333084883 417.4440295917659L1155.8762333084883 399.7677551493589L1132.940902007183 399.7677551493589Q1118.2155428022688 399.7677551493589 1109.7134008803837 403.56596288078515Q1101.1820419759492 407.33495362966204 1101.1820419759492 416.3922182199863L1101.1820419759492 416.3922182199863Q1101.1820419759492 423.112124206356 1105.9151931489575 428.1666621874079Q1110.6483443219659 433.2212001684598 1123.4745996611668 433.2212001684598ZM1216.6767739938587 448.99837074515375L1216.6767739938587 448.99837074515375Q1212.6740473845864 448.99837074515375 1209.956868007489 446.251974385507Q1207.2104716478423 443.53479500840973 1207.2104716478423 439.53206839913736L1207.2104716478423 439.53206839913736L1207.2104716478423 349.2808093039383Q1207.2104716478423 345.07356381681996 1209.956868007489 342.35638443972266Q1212.6740473845864 339.609988080076 1216.6767739938587 339.609988080076L1216.6767739938587 339.609988080076Q1220.679500603131 339.609988080076 1223.5135479104258 342.35638443972266Q1226.3475952177212 345.07356381681996 1226.3475952177212 349.2808093039383L1226.3475952177212 349.2808093039383L1226.3475952177212 357.8998191560211Q1233.0967181866401 350.537139553564 1242.2416337246127 344.5476581309302Q1251.3865492625853 338.5581767082964 1265.469134851412 338.5581767082964L1265.469134851412 338.5581767082964Q1277.477314679229 338.5581767082964 1285.891805653466 344.1386203752381Q1294.3062966277025 349.71906404217987 1298.718060992667 359.06849845799843Q1303.1298253576313 368.41793287381705 1303.1298253576313 379.7833390855466L1303.1298253576313 379.7833390855466L1303.1298253576313 439.53206839913736Q1303.1298253576313 443.53479500840973 1300.2957780503364 446.251974385507Q1297.4617307430415 448.99837074515375 1293.459004133769 448.99837074515375L1293.459004133769 448.99837074515375Q1289.4562775244965 448.99837074515375 1286.7390981473993 446.251974385507Q1283.9927017877528 443.53479500840973 1283.9927017877528 439.53206839913736L1283.9927017877528 439.53206839913736L1283.9927017877528 381.88696182910576Q1283.9927017877528 369.9079989838381 1278.616776998657 363.0712250672708Q1273.2700691921107 356.2344511507034 1260.8528516086014 356.2344511507034L1260.8528516086014 356.2344511507034Q1249.487445396872 356.2344511507034 1241.0729544226353 362.340800503535Q1232.6584634483986 368.41793287381705 1226.3475952177212 376.42338609236174L1226.3475952177212 376.42338609236174L1226.3475952177212 439.53206839913736Q1226.3475952177212 443.53479500840973 1223.5135479104258 446.251974385507Q1220.679500603131 448.99837074515375 1216.6767739938587 448.99837074515375Z " fill="#ffd700" transform="matrix(0.6714603747719003,0,0,0.6714603747719005,0,48.16860831959754)"/></g></svg>